<?xml version="1.0" standalone="no"?>
<!DOCTYPE svg PUBLIC "-//W3C//DTD SVG 20010904//EN"
 "http://www.w3.org/TR/2001/REC-SVG-20010904/DTD/svg10.dtd">
<svg version="1.0" xmlns="http://www.w3.org/2000/svg"
 width="488.000000pt" height="676.000000pt" viewBox="0 0 488.000000 676.000000"
 preserveAspectRatio="xMidYMid meet">
<metadata>
Created by potrace 1.16, written by Peter Selinger 2001-2019
</metadata>
<g transform="translate(0.000000,676.000000) scale(0.100000,-0.100000)"
fill="#000000" stroke="none">
<path d="M0 6365 l0 -394 193 -3 c105 -2 194 0 195 5 10 21 37 37 63 37 27 0
29 -2 23 -27 -10 -44 -29 -59 -58 -45 -28 12 -36 7 -36 -22 1 -27 20 -51 43
-51 9 0 16 -4 15 -10 -2 -5 -11 -9 -20 -8 -24 4 -34 -20 -43 -96 -6 -52 -15
-76 -46 -122 -22 -31 -39 -61 -39 -66 0 -6 -7 -16 -15 -23 -9 -7 -13 -21 -10
-30 4 -13 -1 -19 -19 -24 -17 -4 -33 -22 -51 -61 -15 -30 -45 -75 -67 -100
-40 -45 -55 -70 -104 -167 l-24 -48 0 -389 c0 -249 4 -392 10 -396 6 -3 10
-14 10 -23 0 -15 -2 -15 -11 -2 -12 18 -6 -76 10 -162 7 -36 8 -84 3 -133 l-8
-76 27 -15 c16 -8 32 -28 39 -49 13 -41 12 -45 -21 -49 -53 -7 -59 -15 -59
-78 0 -51 2 -59 16 -54 9 3 21 6 28 6 7 0 26 11 42 25 32 28 66 32 83 11 12
-14 43 -76 104 -206 19 -41 51 -97 71 -125 61 -84 106 -154 106 -163 0 -5 -17
-12 -39 -16 -21 -3 -44 -12 -50 -20 -7 -8 -27 -18 -44 -22 -17 -3 -41 -13 -53
-20 -11 -8 -24 -11 -27 -7 -4 3 -7 2 -7 -4 0 -6 -8 -13 -17 -17 -10 -3 -31
-14 -48 -25 -16 -11 -38 -20 -47 -20 -10 -1 -18 -5 -18 -10 0 -5 -19 -19 -42
-31 -54 -28 -58 -34 -58 -98 0 -51 1 -52 22 -41 13 7 28 18 35 24 44 45 374
207 444 219 l37 7 7 -61 c4 -38 12 -63 21 -67 8 -3 14 -18 14 -33 0 -30 30
-52 30 -22 1 14 4 13 20 -7 11 -13 20 -31 19 -40 0 -12 -2 -12 -9 4 -7 15 -9
16 -9 4 -1 -20 22 -41 39 -37 7 2 14 -2 17 -8 2 -7 -11 -14 -31 -18 -27 -5
-34 -11 -30 -24 4 -13 2 -13 -10 3 -8 11 -21 27 -29 35 -19 20 -47 76 -47 93
0 8 -10 22 -22 30 -19 13 -20 16 -5 16 28 1 19 71 -9 71 -8 0 -14 4 -14 9 0
19 -303 -115 -321 -142 -3 -5 -9 -8 -13 -8 -16 2 -23 -1 -48 -22 -15 -12 -45
-33 -68 -47 -33 -20 -40 -29 -40 -56 0 -20 6 -34 16 -38 16 -6 16 -8 0 -24
-10 -12 -16 -36 -16 -70 0 -48 2 -51 27 -55 l28 -4 -27 -2 -28 -1 0 -334 0
-333 40 -7 c22 -3 40 -10 40 -15 0 -6 -13 -6 -32 0 -18 5 -36 9 -40 9 -5 0 -8
-36 -8 -79 0 -75 1 -80 23 -84 l22 -4 -22 -2 -23 -1 0 -330 c0 -286 2 -335 16
-362 23 -44 24 -136 2 -149 -15 -8 -16 -53 -17 -474 l-2 -465 668 1 c430 0
661 4 648 10 -16 7 -15 8 5 2 14 -4 820 -9 1793 -10 l1767 -3 0 1360 0 1359
-33 -6 c-17 -3 -42 -13 -55 -21 -19 -12 -22 -13 -20 -1 2 10 -6 13 -24 12 -31
-2 -35 12 -13 41 8 11 15 26 15 33 0 7 29 42 65 78 l65 64 0 133 c0 97 -3 129
-11 118 -8 -12 -9 -9 -4 10 18 65 17 81 -1 95 -18 13 -18 14 -1 32 16 18 17
107 17 1471 0 1376 -1 1452 -17 1452 -10 0 -27 7 -38 16 -17 13 -18 16 -5 24
12 8 11 10 -5 10 -19 1 -19 1 -1 15 18 14 30 60 20 77 -3 5 -12 1 -20 -7 -16
-16 -54 -21 -54 -7 0 17 37 42 53 36 9 -3 27 3 41 13 25 18 25 20 26 164 l0
147 -30 4 c-25 4 -35 -2 -64 -35 -30 -34 -37 -38 -51 -27 -11 9 -33 11 -75 7
-33 -4 -66 -4 -75 -1 -18 7 -20 35 -3 52 9 9 6 12 -14 12 -42 0 -57 -10 -75
-47 l-16 -35 -18 35 c-21 41 -38 45 -174 47 -70 0 -93 4 -102 17 -10 13 -15
14 -28 3 -11 -9 -62 -14 -168 -17 -203 -5 -423 -19 -582 -38 -71 -8 -168 -19
-215 -25 -47 -6 -119 -17 -160 -25 -161 -31 -197 -37 -250 -41 -30 -3 -79 -10
-108 -15 -30 -6 -56 -8 -59 -6 -6 7 100 37 212 62 44 10 93 22 109 26 16 5 46
9 68 9 21 0 80 7 131 15 50 8 142 19 202 26 376 38 444 36 -1492 38 l-1843 1
0 -395z m578 258 c22 -63 30 -91 48 -165 3 -15 3 -47 0 -71 l-7 -44 -142 3
c-190 4 -217 6 -217 16 0 4 6 9 13 9 62 6 84 12 101 28 12 11 41 23 66 28 31
6 46 14 48 27 3 13 0 16 -10 11 -7 -4 2 6 20 22 37 32 40 44 23 127 -14 78
-15 76 12 76 18 0 26 -11 45 -67z m3212 -71 c0 -9 12 -25 27 -34 l27 -16 -37
-7 c-31 -6 -38 -11 -35 -29 2 -11 8 -21 13 -21 6 0 19 -6 30 -12 19 -11 19
-12 -5 -32 -14 -11 -29 -21 -35 -21 -5 -1 8 -7 30 -14 31 -9 39 -17 37 -32 -2
-10 -3 -34 -2 -53 l1 -34 -73 6 c-40 3 -81 8 -90 12 -28 11 -22 44 9 51 26 7
26 7 5 15 -45 17 -41 67 9 124 17 19 37 35 45 35 8 0 14 7 14 15 0 10 -10 15
-34 15 -44 0 -53 14 -24 34 32 23 88 21 88 -2z m-2672 -892 c26 -6 70 -15 97
-21 28 -6 73 -24 101 -40 28 -16 54 -26 57 -22 4 3 7 2 7 -4 0 -5 23 -24 50
-41 28 -17 53 -39 57 -49 7 -19 35 -46 65 -63 12 -7 21 -6 32 6 9 8 16 11 16
5 0 -6 16 -34 36 -61 22 -30 43 -77 54 -118 14 -55 47 -140 67 -174 11 -20
-11 -3 -64 46 -31 30 -68 61 -82 68 -31 16 -54 38 -76 72 -10 14 -21 26 -26
26 -9 0 -26 13 -103 80 -48 41 -37 33 -156 116 -52 37 -99 72 -105 78 -5 6
-34 29 -62 50 -77 55 -67 68 35 46z m-139 -281 c1 -3 16 -23 35 -43 35 -37 63
-48 52 -21 -10 26 5 17 66 -41 52 -49 62 -55 88 -49 18 4 30 3 30 -4 0 -5 9
-12 19 -16 12 -4 18 -12 14 -21 -3 -8 1 -14 11 -14 18 0 22 25 6 35 -5 3 -10
16 -10 27 l0 22 20 -22 c12 -12 27 -22 35 -22 8 0 15 -6 15 -13 0 -24 56 -81
72 -74 17 6 14 47 -2 47 -5 0 -19 15 -32 32 l-23 33 50 -29 c28 -16 55 -35 61
-42 7 -9 19 -12 29 -8 14 6 11 11 -18 28 -19 12 -55 39 -80 61 -25 22 -59 50
-74 62 -38 30 -14 29 31 -2 20 -14 43 -25 50 -25 8 0 19 -7 26 -15 7 -8 18
-15 25 -15 6 0 33 -22 58 -50 39 -42 43 -51 30 -59 -14 -8 -14 -9 3 -15 10 -4
30 -21 44 -39 22 -27 23 -30 5 -23 -11 5 -32 10 -46 11 -24 3 -27 0 -25 -29 1
-25 -3 -31 -18 -29 -13 1 -15 -2 -7 -10 6 -6 11 -18 10 -26 0 -11 -2 -12 -6
-3 -2 6 -9 9 -14 6 -6 -3 -21 2 -35 11 -29 19 -48 11 -41 -17 4 -15 2 -18 -16
-12 l-22 6 23 -24 c12 -13 22 -30 22 -37 0 -7 4 -10 9 -7 4 3 17 -1 27 -9 18
-13 18 -14 -8 -20 -33 -9 -149 57 -223 125 -27 26 -56 45 -62 43 -7 -3 -17 6
-22 19 -13 31 -47 61 -98 84 -23 10 -43 23 -43 27 0 12 -61 69 -67 63 -3 -3
22 -42 56 -87 34 -45 61 -86 61 -92 0 -18 79 -108 130 -149 28 -22 55 -49 61
-59 6 -11 20 -24 32 -29 12 -6 31 -16 42 -22 11 -7 49 -30 85 -52 36 -21 66
-40 68 -41 6 -5 -20 -60 -31 -67 -7 -4 -21 -8 -32 -8 -22 0 -112 -60 -156
-104 -15 -14 -32 -26 -38 -26 -5 0 -8 -7 -5 -15 4 -8 1 -15 -5 -15 -16 0 -13
-42 4 -68 15 -21 17 -21 40 -6 23 15 25 15 25 0 0 -12 7 -14 33 -9 17 3 34 9
37 13 3 4 19 15 37 24 60 30 184 9 155 -27 -7 -8 -7 -18 -2 -27 5 -8 6 -18 4
-22 -3 -5 -2 -23 2 -40 l6 -32 19 23 c11 13 19 32 19 43 0 21 37 100 52 109 6
4 28 -13 50 -37 24 -26 49 -44 62 -44 25 1 63 27 52 37 -4 4 -11 1 -16 -7 -8
-12 -14 -12 -44 3 -44 21 -52 53 -8 36 33 -14 101 -21 124 -13 10 3 21 19 26
36 6 22 16 34 37 41 21 7 30 7 33 -1 8 -24 41 -12 57 21 25 51 37 63 89 87 38
17 59 20 95 16 57 -8 94 -10 148 -5 39 3 45 0 83 -43 22 -26 71 -67 108 -92
37 -24 78 -56 92 -71 41 -44 139 -115 159 -115 28 0 51 -43 57 -107 3 -32 8
-84 11 -117 3 -32 -1 -102 -7 -155 -7 -53 -14 -114 -16 -136 -3 -22 -7 -46 -9
-54 -4 -9 0 -11 10 -7 19 7 19 1 -5 -70 -11 -32 -20 -67 -20 -76 0 -10 -4 -18
-10 -18 -17 0 -11 -47 6 -54 13 -5 15 -15 9 -53 -6 -42 -5 -46 9 -34 9 8 16
12 17 10 12 -44 -7 -173 -31 -204 -13 -17 -20 -85 -8 -85 7 0 8 -17 4 -47 -9
-73 -15 -170 -10 -150 3 9 9 17 14 17 10 0 11 -11 13 -95 1 -97 -10 -197 -25
-206 -11 -7 -10 -11 2 -19 13 -8 13 -10 -1 -10 -10 0 -21 -17 -30 -47 -9 -31
-23 -52 -37 -58 -12 -5 -22 -14 -22 -20 -1 -15 -36 -55 -49 -55 -6 0 -20 -13
-33 -30 -12 -17 -29 -30 -37 -30 -15 0 -81 -67 -81 -82 0 -5 -4 -8 -10 -8 -5
0 -10 7 -10 16 0 13 -8 10 -37 -12 -37 -28 -42 -29 -148 -29 -102 0 -115 3
-175 31 -96 46 -240 194 -240 247 0 24 3 27 20 22 11 -3 29 -4 40 0 19 6 19 7
-4 32 -23 24 -28 25 -84 19 -38 -4 -63 -3 -67 4 -8 13 -42 13 -47 0 -2 -6 -29
3 -63 21 -91 48 -289 169 -298 182 -5 7 -5 1 -1 -13 6 -23 6 -24 -17 -9 -13 9
-35 22 -49 30 -14 8 -33 23 -43 34 -18 19 -18 20 3 37 16 13 20 23 14 40 -4
13 -7 35 -6 50 0 15 -3 30 -8 33 -12 7 -50 -31 -50 -49 0 -25 -48 -25 -67 0
-10 14 -32 26 -55 29 -27 5 -53 22 -96 63 -51 51 -142 171 -142 188 0 4 -12
23 -27 43 -66 85 -115 187 -117 240 -1 44 0 46 25 43 15 -1 33 5 42 16 15 17
15 18 -4 19 -33 3 -36 13 -10 34 13 11 21 22 18 26 -4 3 3 17 13 31 25 32 27
57 3 47 -52 -20 -68 -17 -81 14 -11 24 -11 38 -2 66 16 49 27 51 46 11 21 -44
68 -66 91 -44 13 14 12 16 -10 22 -14 3 -27 13 -31 21 -4 12 3 15 33 15 39 0
51 11 60 56 0 4 7 1 15 -6 8 -6 12 -18 9 -26 -3 -8 1 -14 11 -14 11 0 16 9 16
26 0 23 3 25 25 20 43 -11 28 8 -27 34 -65 31 -179 34 -221 7 -14 -9 -28 -13
-31 -8 -6 9 42 31 108 52 24 7 75 10 133 7 85 -5 110 0 82 17 -5 4 -14 18 -19
31 -13 34 -61 60 -149 80 -42 9 -89 24 -105 32 -24 12 -39 12 -90 2 -96 -19
-200 -78 -189 -107 4 -11 3 -14 -6 -9 -6 4 -19 2 -27 -5 -8 -6 -16 -10 -17 -8
-5 7 -46 148 -93 319 -65 232 -72 256 -74 245 -1 -5 -2 -13 -1 -17 0 -5 -4 -8
-9 -8 -6 0 -10 6 -11 13 0 6 -4 48 -9 92 -6 57 -4 102 5 155 23 127 27 140 42
140 7 0 13 6 12 13 -1 6 1 19 4 27 3 8 22 60 42 115 30 84 44 107 82 143 25
23 53 42 64 42 10 0 19 4 19 8 0 5 19 16 41 26 34 15 43 16 50 5 7 -12 12 -12
29 -1 14 8 26 10 33 4 7 -5 28 -10 47 -10 19 0 39 -7 45 -15 20 -27 70 -52
106 -53 34 0 36 1 29 22 -5 12 -6 25 -3 28 4 3 1 6 -5 6 -7 0 -12 7 -12 16 0
8 -11 32 -25 52 l-25 37 22 5 c17 4 37 -5 75 -35 28 -22 52 -43 52 -46z m2184
-381 c0 -15 5 -26 10 -25 6 1 13 -6 15 -17 2 -11 0 -16 -7 -12 -6 4 -11 2 -11
-4 0 -6 6 -13 14 -16 8 -3 17 -12 20 -21 4 -10 2 -13 -8 -10 -12 5 -13 1 -4
-26 18 -51 40 -80 49 -65 4 7 11 9 15 6 10 -10 -4 -40 -15 -33 -6 3 -15 -4
-21 -15 -18 -33 -33 -24 -26 15 6 29 3 36 -17 50 -32 21 -55 64 -39 74 8 5 8
14 -3 35 -17 33 -19 56 -5 56 6 0 5 9 -1 24 -7 14 -17 22 -25 19 -13 -5 -40
44 -30 54 2 3 7 -5 11 -16 7 -23 25 -29 25 -8 0 7 5 18 12 25 9 9 15 3 26 -26
8 -20 15 -49 15 -64z m127 -549 c0 -13 5 -17 17 -12 13 5 15 2 11 -15 -4 -12
-2 -22 2 -22 5 0 9 -8 9 -17 3 -71 9 -104 23 -120 21 -24 36 -139 34 -249 -1
-49 1 -93 5 -99 10 -15 46 -221 53 -301 20 -224 30 -304 37 -304 5 0 9 5 9 10
0 15 17 12 23 -4 4 -10 1 -13 -9 -9 -10 4 -14 -3 -14 -26 0 -31 14 -42 23 -18
3 6 5 -6 6 -28 0 -38 -1 -39 -12 -15 -11 23 -12 21 -15 -27 -2 -36 3 -65 17
-95 19 -42 20 -43 29 -18 5 14 12 93 16 175 3 83 11 168 17 190 6 22 10 58 9
79 -1 34 1 38 14 26 9 -7 16 -22 16 -34 0 -12 5 -27 11 -33 8 -8 9 -27 3 -60
-4 -26 -8 -54 -7 -60 0 -7 -3 -10 -8 -7 -5 3 -9 -13 -9 -36 0 -25 -4 -39 -10
-35 -6 4 -10 -8 -10 -29 0 -20 4 -36 9 -36 15 0 43 52 45 81 2 37 21 58 38 41
9 -9 9 -25 1 -64 -11 -52 -8 -83 4 -39 4 17 8 19 14 9 9 -13 4 -60 -12 -113
-4 -16 -10 -72 -12 -123 -4 -82 -7 -95 -26 -108 -13 -9 -20 -23 -17 -32 2 -10
8 -28 12 -42 6 -21 5 -23 -8 -12 -14 11 -17 6 -23 -34 -8 -58 8 -82 27 -37 7
16 18 28 24 26 17 -6 45 70 30 79 -8 6 -8 8 2 8 6 0 12 9 12 20 0 11 4 20 8
20 17 0 47 86 46 132 0 26 3 45 8 42 4 -3 8 4 8 15 0 11 4 22 9 26 10 6 7 -58
-5 -107 -3 -16 -2 -28 3 -28 5 0 8 -21 7 -47 -2 -37 -1 -43 7 -28 6 14 7 6 3
-30 -3 -27 -12 -58 -20 -69 -16 -23 -19 -60 -4 -51 6 3 10 1 10 -4 0 -6 -4
-11 -8 -11 -4 0 -8 -9 -9 -20 -1 -11 2 -20 6 -20 10 0 21 35 21 65 0 11 5 27
10 35 9 13 11 13 19 0 8 -11 12 -9 20 13 6 16 11 36 11 45 0 9 5 24 10 32 9
13 10 13 10 0 1 -11 6 -8 20 9 l20 23 1 -53 c2 -47 3 -44 9 26 4 44 14 94 21
110 7 17 14 47 15 69 1 21 7 43 13 49 8 8 11 -12 11 -72 0 -87 13 -102 25 -28
7 42 24 83 25 60 0 -14 -34 -203 -51 -278 -24 -111 -37 -210 -28 -213 6 -2 6
-9 1 -15 -12 -16 -32 -89 -32 -116 0 -12 -4 -29 -10 -39 -10 -19 -68 -226 -75
-272 -12 -74 -25 -157 -25 -168 0 -29 19 1 27 41 7 35 9 21 14 -83 3 -69 9
-132 13 -141 5 -12 1 -18 -13 -22 -17 -4 -19 -9 -12 -35 5 -17 6 -34 3 -39 -4
-4 -3 -4 3 0 5 5 10 15 10 23 0 7 5 13 10 11 6 -1 9 -18 7 -39 -2 -20 2 -39 8
-43 7 -4 5 -15 -6 -34 -16 -27 -16 -30 18 -92 32 -60 39 -99 17 -99 -5 0 -9 5
-9 10 0 19 -48 34 -64 21 -11 -9 -18 -7 -32 11 -25 31 -70 35 -79 7 -5 -16
-10 -18 -21 -8 -17 14 -17 14 1 -49 25 -85 -1 -96 -35 -16 -11 24 -24 44 -30
44 -5 0 -10 8 -10 18 0 10 -7 27 -15 38 -32 46 -37 112 -25 314 6 107 16 221
21 252 8 47 7 62 -6 81 -12 19 -13 30 -5 51 12 33 13 39 1 32 -5 -4 -9 33 -10
85 0 51 -5 97 -11 103 -7 7 -10 -20 -11 -90 0 -54 -1 -127 -2 -160 -2 -46 1
-60 11 -57 16 7 15 -9 -2 -33 -8 -10 -12 -30 -10 -44 3 -14 -2 -65 -12 -115
-21 -118 -25 -155 -14 -155 4 0 11 6 13 13 3 7 6 5 6 -5 1 -10 -3 -18 -8 -18
-5 0 -7 -18 -4 -40 3 -23 0 -81 -6 -130 -7 -48 -14 -115 -15 -147 -2 -55 -9
-88 -55 -273 -39 -154 -70 -241 -101 -288 -18 -26 -29 -38 -25 -27 4 11 16 56
26 100 11 44 31 114 43 155 28 89 39 153 25 145 -5 -4 -9 -13 -9 -20 0 -16
-25 -93 -43 -137 -7 -16 -17 -28 -24 -28 -7 0 -28 -34 -48 -76 -20 -42 -38
-74 -40 -73 -3 4 26 160 40 212 5 17 3 27 -4 27 -17 0 -13 19 11 52 11 17 24
49 29 71 10 58 -9 161 -32 175 -17 11 -19 9 -19 -13 0 -14 5 -25 10 -25 6 0
10 -15 10 -32 l-1 -33 -13 24 c-13 23 -14 18 -26 -63 -8 -48 -17 -89 -22 -92
-10 -7 -11 -74 0 -74 4 0 13 5 20 12 7 7 12 8 12 2 0 -6 -9 -19 -20 -29 -11
-10 -22 -26 -25 -36 -4 -11 -12 -19 -20 -19 -8 0 -16 -10 -20 -22 -3 -13 -10
-32 -15 -43 -42 -96 -50 -117 -50 -139 0 -35 -15 -40 -28 -11 -7 14 -17 25
-23 25 -8 0 -8 -4 -1 -12 5 -7 13 -35 17 -61 4 -26 10 -46 13 -43 5 6 51 -43
53 -56 1 -10 1 -62 0 -88 -1 -18 -4 -19 -23 -9 -13 7 -29 20 -36 31 -21 29
-49 23 -57 -12 -5 -23 -11 -29 -24 -25 -13 4 -24 -6 -41 -37 -25 -46 -93 -114
-123 -124 -9 -3 -15 -10 -12 -15 4 -5 0 -9 -9 -9 -8 0 -16 -6 -19 -12 -2 -7
-7 -10 -11 -6 -4 3 9 27 28 53 20 25 36 52 36 59 0 6 9 29 19 50 15 29 16 36
5 32 -12 -4 -12 -2 -4 14 7 12 7 20 1 20 -5 0 -22 -25 -38 -55 -25 -50 -29
-54 -40 -39 -18 25 -16 37 7 52 11 7 20 18 20 25 0 8 -3 7 -10 -3 -5 -8 -10
-12 -12 -10 -28 44 -31 144 -4 184 20 31 40 140 26 144 -5 2 -10 12 -10 22 0
24 25 82 32 74 6 -6 20 28 17 42 -1 5 -1 25 0 44 1 29 7 38 35 50 32 15 32 15
28 -7 -2 -13 -12 -23 -21 -23 -13 0 -16 -11 -17 -50 0 -28 3 -50 8 -50 4 0 8
-15 8 -34 0 -63 37 -124 67 -111 10 5 23 7 30 6 8 -1 11 24 11 86 -2 110 9
180 25 164 7 -7 12 -18 12 -26 0 -8 5 -16 10 -17 6 -2 11 19 13 46 1 27 6 54
11 60 5 6 12 35 16 64 7 66 27 128 40 125 6 -1 13 -24 16 -50 4 -35 6 -40 8
-18 11 150 21 205 37 205 8 0 14 -8 15 -17 1 -34 21 31 25 82 3 28 8 67 12 88
l7 39 22 -26 c13 -15 20 -32 16 -41 -4 -11 1 -18 16 -22 25 -6 27 -18 6 -27
-11 -4 -14 -13 -10 -29 5 -18 2 -26 -12 -31 -15 -6 -13 -10 16 -23 18 -9 36
-25 40 -36 7 -18 8 -19 14 -3 4 10 3 25 -2 34 -10 20 -3 45 9 37 11 -7 32 65
35 115 1 19 5 52 9 72 5 20 9 52 11 70 1 18 6 48 10 66 5 21 4 32 -4 32 -6 0
-11 -9 -11 -20 0 -13 -5 -18 -15 -14 -8 4 -15 1 -15 -5 0 -21 -18 -11 -22 13
-4 17 -1 23 9 19 16 -6 17 11 3 38 -8 14 -8 36 1 77 6 31 13 68 14 82 2 14 8
47 15 75 7 33 8 51 1 53 -6 2 -9 15 -7 30 2 15 1 20 -1 12 -12 -37 -25 -33
-19 5 4 22 13 45 20 50 7 6 17 19 23 30 21 43 2 490 -25 580 -8 25 -11 27 -17
12 -4 -9 -5 -26 -2 -37 3 -11 0 -23 -5 -27 -8 -4 -9 26 -5 98 3 57 1 122 -4
144 -14 65 -40 198 -43 225 -2 14 -4 25 -6 25 -1 0 -4 23 -6 50 -11 113 -15
151 -21 165 -7 17 -8 25 -22 195 -6 66 -13 134 -17 150 l-6 30 21 -25 c11 -14
21 -19 21 -12 0 7 5 10 10 7 6 -3 10 -17 10 -30 0 -32 10 -56 21 -49 11 6 12
54 1 54 -4 0 -7 19 -6 43 0 23 -3 47 -6 52 -11 15 -20 63 -27 135 -3 35 -13
89 -23 120 -11 33 -14 59 -9 66 11 14 -7 118 -21 122 -6 2 -10 8 -10 13 0 4 7
6 15 3 8 -4 15 -15 15 -25z m280 -340 c0 -6 6 -9 14 -6 11 4 14 -13 16 -86 1
-77 1 -212 -2 -314 0 -13 -4 -23 -9 -23 -5 0 -9 -11 -9 -24 0 -45 -20 -39 -22
6 -2 45 -1 55 6 128 19 188 19 180 0 173 -16 -6 -44 19 -44 39 0 18 19 6 23
-14 4 -22 10 30 10 100 1 17 4 32 9 32 4 0 8 -5 8 -11z m-345 -569 c17 0 25
-46 14 -84 -7 -23 -6 -33 5 -40 12 -8 12 -13 -1 -33 -12 -17 -12 -23 -3 -21 7
2 15 -3 17 -9 3 -7 -3 -13 -13 -13 -15 0 -16 -2 -2 -17 12 -14 15 -41 12 -128
-3 -130 -2 -123 -13 -107 -6 10 -10 3 -15 -23 -8 -40 1 -63 11 -27 9 36 25 26
17 -10 -4 -18 -8 -46 -9 -63 -8 -116 -19 -214 -28 -235 -11 -27 -12 -29 -20
-103 -4 -37 -2 -47 8 -43 21 8 27 -80 10 -149 -17 -72 -19 -141 -4 -151 19
-11 41 23 50 77 5 29 16 68 25 88 9 19 19 55 22 78 2 24 8 43 12 43 4 0 11 25
15 56 4 31 9 53 12 51 10 -11 14 -129 4 -160 -6 -19 -7 -49 -2 -74 5 -24 5
-43 1 -43 -9 0 -19 -90 -12 -104 2 -4 8 -2 13 5 6 10 9 8 9 -7 0 -23 -23 -48
-33 -37 -4 3 -7 -1 -7 -10 0 -8 5 -17 12 -19 9 -3 8 -13 -4 -39 -23 -49 -50
-192 -42 -223 3 -14 2 -26 -3 -26 -6 0 -10 -13 -11 -29 0 -16 -14 -55 -30 -87
-16 -33 -33 -70 -37 -84 -4 -13 -14 -30 -21 -38 -8 -7 -14 -24 -14 -37 0 -13
-6 -36 -14 -52 -12 -23 -26 -69 -52 -160 -2 -7 -8 -13 -14 -13 -18 0 -11 68
11 105 12 20 19 38 16 41 -6 6 -50 -63 -54 -85 -1 -9 -5 -31 -9 -49 -5 -26 -3
-31 9 -27 10 5 16 -2 19 -24 8 -51 -3 -93 -24 -99 -11 -3 -21 -17 -25 -33 -3
-16 -10 -26 -15 -23 -5 4 -7 17 -4 30 4 13 2 24 -4 24 -5 0 -13 -11 -16 -26
-5 -18 -12 -24 -28 -22 -11 2 -21 8 -21 15 0 7 -8 22 -17 33 -22 25 -22 30 -3
30 21 0 30 27 15 44 -9 11 -8 25 5 62 9 26 20 80 25 121 5 40 16 86 24 101 8
15 17 70 21 122 4 52 9 103 11 112 4 14 1 16 -12 11 -12 -4 -15 -2 -12 8 3 8
14 14 25 15 16 1 19 -4 15 -19 -3 -14 -1 -18 9 -15 10 3 15 24 17 67 2 42 0
61 -7 56 -6 -3 -11 -15 -11 -26 0 -11 -4 -17 -10 -14 -5 3 -10 1 -10 -4 0 -6
-4 -11 -10 -11 -5 0 -10 9 -10 21 0 11 4 18 9 15 8 -5 42 98 46 139 1 12 10
21 24 23 26 4 54 44 48 69 -4 16 -5 16 -11 -2 -23 -62 -41 -60 -42 5 0 25 -3
51 -7 57 -4 6 1 27 11 45 10 18 17 39 15 46 -8 22 -21 12 -27 -22 -4 -19 -13
-47 -21 -63 -8 -16 -17 -46 -19 -67 -3 -20 -14 -48 -26 -63 -11 -14 -20 -34
-20 -44 0 -11 -5 -19 -10 -19 -13 0 -3 42 21 94 11 22 23 76 29 120 6 45 17
106 25 136 30 118 38 146 46 165 9 20 13 56 24 180 6 66 20 151 32 185 2 8 6
42 8 75 4 96 24 287 29 293 3 2 1 12 -4 22 -7 12 -4 23 10 38 20 21 25 58 13
100 -4 18 -8 20 -14 10 -6 -9 -9 -3 -9 18 0 36 14 55 18 25 2 -12 9 -21 17
-21z m979 -391 c-3 -6 -8 -57 -10 -115 -2 -58 -7 -111 -11 -117 -4 -7 -9 -21
-10 -32 -1 -11 -5 -37 -8 -57 -5 -39 2 -47 23 -26 9 9 12 9 12 0 0 -7 -4 -12
-10 -12 -5 0 -10 -7 -10 -15 0 -8 -6 -15 -13 -15 -13 0 -37 -79 -37 -120 0
-11 -6 -34 -14 -52 -27 -62 -48 -133 -62 -213 l-6 -30 21 30 c12 17 28 55 37
85 9 30 21 65 27 77 5 12 7 29 4 37 -3 8 -2 18 3 21 6 4 10 19 10 35 0 29 19
44 45 34 22 -9 34 33 22 74 -9 26 -8 35 3 42 11 7 18 -1 30 -31 15 -38 17 -39
31 -22 31 36 32 44 5 37 -25 -6 -25 -5 -14 27 15 46 23 53 41 35 9 -9 20 -16
26 -16 14 0 14 -57 1 -65 -11 -7 -55 -144 -48 -151 10 -10 38 9 38 26 0 24 39
72 40 49 0 -9 -7 -29 -15 -45 -8 -15 -12 -30 -9 -33 8 -8 43 41 44 59 0 11 2
12 8 3 5 -9 15 -4 32 17 27 33 46 40 31 13 -5 -10 -9 -20 -9 -23 0 -3 -5 -18
-11 -33 -21 -55 -2 -67 27 -17 20 36 32 38 32 8 l1 -23 20 24 c16 20 22 22 32
11 9 -9 9 -14 1 -17 -7 -2 -29 -55 -50 -118 -24 -73 -43 -115 -52 -115 -9 0
-11 -7 -7 -20 9 -28 -13 -54 -32 -39 -7 7 -15 10 -16 8 -2 -2 -14 -20 -27 -39
-23 -34 -66 -80 -75 -80 -3 0 -2 14 2 30 3 19 1 30 -6 30 -6 0 -11 -7 -11 -15
0 -8 -4 -15 -10 -15 -5 0 -10 -5 -10 -12 0 -16 -40 -58 -56 -58 -7 0 -16 -15
-19 -32 -7 -30 -50 -87 -67 -88 -3 0 0 13 8 30 9 17 19 30 24 30 4 0 7 8 5 18
-2 9 -4 23 -4 31 -1 22 -71 -81 -71 -104 0 -16 -2 -17 -9 -6 -6 9 -6 22 0 32
10 20 12 35 3 26 -10 -10 -44 12 -44 28 0 25 -36 17 -48 -10 -7 -14 -12 -31
-12 -38 0 -7 -11 -29 -25 -48 -13 -20 -22 -38 -21 -40 2 -2 -2 -10 -10 -17
-12 -11 -14 -8 -14 15 0 15 7 66 15 113 10 55 13 114 10 168 -3 49 -1 99 6
125 6 23 12 60 13 81 2 22 8 42 14 44 7 2 12 12 12 22 0 10 5 22 10 25 6 3 10
27 10 53 0 37 6 52 25 71 14 12 22 27 19 32 -3 6 -3 18 1 27 6 15 8 15 15 -3
8 -18 9 -17 9 7 1 15 8 31 16 36 9 4 20 30 25 58 12 65 23 111 55 224 36 131
35 129 46 102 5 -13 6 -28 3 -33z m404 -16 c5 -10 13 -36 17 -58 4 -22 10 -44
13 -50 10 -16 13 -34 17 -120 2 -44 7 -91 13 -105 11 -31 9 -79 -4 -83 -5 -1
-9 10 -9 25 -1 32 -14 51 -16 22 -1 -10 -1 -25 0 -32 1 -8 -3 -20 -10 -28 -6
-8 -9 -27 -6 -44 7 -31 -10 -93 -23 -85 -12 7 -31 -44 -24 -69 3 -13 1 -27 -5
-30 -6 -4 -11 -22 -11 -41 0 -18 -10 -55 -21 -82 -18 -40 -22 -45 -29 -28 -7
19 -7 19 -18 -2 -7 -12 -12 -26 -12 -32 0 -9 -43 -77 -57 -91 -3 -3 3 13 12
35 10 22 20 54 23 70 3 17 8 32 11 35 12 10 38 65 51 110 7 25 17 49 22 54 4
6 8 19 8 31 0 11 7 30 15 41 8 12 19 49 24 83 11 65 3 268 -10 277 -5 2 -6 11
-2 19 3 10 -1 15 -12 15 -15 0 -16 6 -11 44 6 39 4 46 -14 56 -18 10 -19 13
-6 25 20 21 26 19 26 -10 0 -14 2 -25 4 -25 2 0 12 -3 21 -7 13 -5 16 -2 12
13 -15 52 -18 84 -8 84 6 0 14 -8 19 -17z m-3910 -313 c24 0 28 -4 77 -77 40
-60 41 -65 19 -56 -12 4 -15 2 -12 -8 3 -8 15 -13 27 -12 11 2 21 -1 21 -7 0
-20 218 -220 240 -220 4 0 13 -11 20 -25 7 -14 18 -25 25 -25 6 0 26 -13 45
-30 l35 -29 -28 -1 c-36 0 -135 50 -142 72 -3 9 -14 20 -23 23 -24 8 -159 135
-144 135 7 0 12 5 12 10 0 6 -8 10 -18 10 -10 0 -32 17 -48 37 -59 75 -96 119
-117 138 -27 25 -47 60 -47 81 0 16 1 16 18 1 10 -10 28 -17 40 -17z m3879
-442 c-4 -12 -1 -28 5 -35 6 -8 21 -52 33 -100 22 -85 26 -173 11 -221 -8 -24
-33 -25 -28 -1 2 7 1 28 -3 45 -4 24 -12 34 -28 36 -13 2 -23 11 -25 23 -2 11
-8 30 -14 42 -6 13 -8 26 -5 30 4 3 7 1 7 -5 0 -7 4 -12 9 -12 4 0 11 19 14
43 4 23 9 55 13 71 5 21 4 27 -5 22 -15 -9 -15 25 1 59 14 31 22 33 15 3z
m-3258 -36 c8 -18 21 -32 28 -32 8 0 11 5 8 13 -4 6 3 1 14 -13 11 -14 21 -30
21 -36 0 -17 30 -26 45 -14 9 8 15 8 20 0 3 -5 1 -10 -6 -10 -8 0 -9 -3 0 -13
15 -19 3 -29 -20 -16 -28 14 -25 -15 7 -76 23 -45 40 -115 28 -115 -3 0 -14 5
-25 11 -19 9 -19 9 -10 -10 19 -34 12 -37 -14 -6 -33 39 -68 107 -90 173 -15
46 -24 58 -66 84 -48 29 -62 48 -36 48 7 0 18 -5 23 -10 17 -17 43 -2 37 21
-3 12 0 19 8 19 11 0 11 3 -1 11 -13 9 -13 10 0 7 8 -2 21 -19 29 -36z m434
-57 c9 -8 36 -17 61 -19 52 -5 66 -12 66 -30 0 -18 -37 -27 -44 -11 -7 18 -46
26 -46 9 0 -8 3 -14 8 -14 8 0 32 -49 32 -67 0 -7 15 -28 34 -46 18 -17 42
-54 52 -82 10 -27 35 -78 56 -112 49 -81 48 -98 -2 -42 -22 24 -40 49 -40 55
0 11 -19 36 -60 80 -11 12 -24 32 -30 45 -5 13 -35 58 -65 99 -71 97 -105 162
-105 201 l0 31 34 -41 c18 -22 41 -47 49 -56z m1074 -256 c-3 -11 -1 -34 5
-51 8 -23 8 -32 -3 -38 -7 -5 -16 -7 -19 -5 -4 3 -5 -110 -1 -140 1 -5 8 -1
16 9 9 13 15 15 15 7 0 -8 -7 -19 -15 -25 -11 -8 -12 -20 -6 -47 5 -20 9 -77
10 -125 1 -49 4 -125 6 -169 3 -44 6 -111 8 -150 2 -38 -1 -83 -6 -100 -13
-45 -27 -143 -30 -212 -1 -34 -6 -65 -10 -69 -10 -10 -9 -44 1 -44 11 0 -8
-71 -36 -133 -12 -27 -25 -59 -28 -71 -6 -26 -40 -50 -49 -36 -3 6 1 10 9 10
9 0 16 7 16 15 0 19 -15 19 -45 -1 -14 -9 -25 -12 -25 -6 0 6 4 13 10 17 5 3
7 12 3 21 -4 11 -11 6 -29 -20 -13 -19 -24 -40 -24 -47 0 -6 -8 -9 -20 -6 -12
3 -24 -1 -29 -11 -8 -14 -12 -15 -22 -4 -10 9 -10 15 -1 24 16 16 16 51 0 46
-7 -3 -15 -16 -19 -30 -4 -15 -14 -37 -24 -50 -16 -23 -17 -22 -13 24 2 26 -1
44 -6 40 -5 -3 -7 1 -4 9 3 8 14 50 23 94 10 44 27 98 37 119 11 22 23 66 26
98 3 43 8 58 18 54 8 -3 16 11 24 42 6 26 18 72 25 102 7 30 14 57 15 60 1 3
2 9 1 13 -1 5 7 43 18 85 33 125 42 191 30 214 -6 11 -8 26 -5 35 11 28 36
158 36 185 0 15 11 57 25 94 14 36 26 89 28 118 3 59 13 80 33 72 11 -4 13 1
8 22 l-6 27 17 -23 c9 -13 15 -32 12 -43z m-1133 -385 c20 -47 36 -92 36 -99
0 -7 7 -15 15 -19 8 -3 12 -12 9 -21 -5 -11 1 -15 20 -15 22 0 25 -4 23 -28
-2 -15 -6 -32 -9 -37 -17 -31 -29 -113 -17 -121 12 -7 11 -55 -1 -74 -7 -11
-10 -4 -10 28 0 57 -15 53 -30 -8 -7 -27 -16 -48 -20 -45 -5 3 -7 39 -6 80 1
42 -1 78 -4 81 -3 3 -5 31 -6 62 -1 85 -14 182 -31 227 -44 118 -20 110 31
-11z"/>
<path d="M2305 3619 c-11 -4 -42 -8 -70 -9 -79 -1 -32 -19 71 -26 80 -6 134
-24 134 -43 0 -4 -19 -22 -42 -39 -24 -17 -59 -46 -79 -64 -19 -18 -53 -46
-75 -62 -21 -16 -55 -45 -76 -64 -20 -19 -40 -32 -45 -29 -5 3 -17 -3 -26 -14
-9 -10 -26 -19 -38 -19 -15 0 -19 -5 -15 -15 3 -8 1 -15 -4 -15 -6 0 -10 -6
-10 -12 -1 -7 -22 -26 -48 -43 -46 -29 -47 -30 -19 -33 30 -4 57 12 57 34 0
13 49 44 70 44 6 0 26 16 44 35 23 24 42 35 62 35 21 0 35 8 49 30 11 16 28
30 38 30 11 0 22 12 29 30 7 20 19 32 36 36 15 3 30 6 34 7 3 1 21 24 40 52
29 44 76 85 111 98 9 4 9 7 0 17 -21 22 -85 40 -139 38 -28 0 -55 1 -60 4 -5
3 -18 2 -29 -3z"/>
<path d="M1840 3544 c0 -5 -21 -21 -47 -34 -27 -14 -49 -28 -51 -32 -2 -5 -10
-8 -17 -8 -22 0 -118 -101 -145 -152 -14 -26 -29 -47 -35 -46 -5 0 -17 -1 -25
-4 -52 -20 -115 -30 -151 -24 -38 6 -40 5 -25 -9 9 -9 16 -25 16 -35 0 -10 4
-21 9 -24 4 -3 11 -18 14 -34 3 -16 22 -48 41 -71 20 -24 36 -47 36 -51 0 -5
3 -15 6 -24 4 -11 0 -16 -14 -16 -20 0 -52 -24 -52 -39 0 -3 21 -13 48 -20 26
-8 77 -30 115 -49 58 -31 70 -34 93 -24 14 7 35 12 46 12 21 0 20 2 -7 30
l-28 29 33 31 c19 18 42 32 53 33 10 1 23 9 28 18 10 20 64 49 91 49 11 0 18
7 18 18 0 10 5 23 12 30 9 9 9 12 1 12 -7 0 -15 -4 -18 -10 -3 -5 -15 -10 -26
-10 -10 0 -19 -5 -19 -11 0 -7 -10 -9 -25 -5 -16 4 -24 2 -23 -5 2 -6 -3 -14
-11 -17 -8 -2 -11 0 -7 6 11 19 -14 24 -39 8 -13 -9 -35 -16 -48 -16 -13 0
-43 -14 -66 -30 -56 -41 -91 -54 -105 -40 -8 8 -5 14 9 22 11 6 43 34 71 62
64 65 104 161 97 230 -5 45 -5 45 71 121 69 69 98 116 82 132 -3 4 -6 2 -6 -3z"/>
</g>
</svg>
