<?xml version="1.0" standalone="no"?>
<!DOCTYPE svg PUBLIC "-//W3C//DTD SVG 20010904//EN"
 "http://www.w3.org/TR/2001/REC-SVG-20010904/DTD/svg10.dtd">
<svg version="1.0" xmlns="http://www.w3.org/2000/svg"
 width="1280.000000pt" height="1274.000000pt" viewBox="0 0 1280.000000 1274.000000"
 preserveAspectRatio="xMidYMid meet">
<metadata>
Created by potrace 1.15, written by Peter Selinger 2001-2017
</metadata>
<g transform="translate(0.000000,1274.000000) scale(0.100000,-0.100000)"
fill="#ffc107" stroke="none">
<path d="M6660 12643 c0 -234 -69 -491 -207 -767 -97 -196 -166 -306 -447
-711 -260 -375 -342 -507 -431 -690 -123 -252 -163 -397 -172 -622 -4 -108 -1
-166 12 -244 32 -193 128 -419 260 -608 l65 -95 0 125 c0 220 33 450 106 739
89 357 209 684 509 1385 236 552 325 785 378 990 27 107 31 136 31 265 1 88
-4 161 -11 186 -14 44 -70 134 -84 134 -5 0 -9 -39 -9 -87z"/>
<path d="M3331 11934 c143 -120 243 -325 304 -626 47 -235 55 -372 65 -1038 5
-344 11 -687 15 -763 31 -752 201 -1117 565 -1212 71 -19 251 -25 334 -11 l48
8 -53 35 c-71 48 -195 173 -246 248 -134 199 -218 454 -272 820 -21 146 -40
432 -51 765 -19 630 -31 832 -61 1035 -54 370 -175 604 -367 708 -66 36 -189
67 -265 67 l-59 0 43 -36z"/>
<path d="M9704 11768 c-55 -123 -190 -306 -319 -431 -237 -232 -433 -357
-1165 -744 -398 -210 -601 -339 -800 -509 -361 -308 -572 -737 -597 -1216 l-6
-116 74 -37 c96 -48 194 -105 294 -169 486 -311 772 -681 870 -1126 22 -105
31 -357 15 -472 -88 -658 -595 -1319 -1315 -1717 -401 -221 -881 -336 -1257
-302 -429 39 -756 193 -1043 492 -222 231 -384 512 -511 884 -32 94 -43 118
-40 85 3 -25 8 -79 11 -120 4 -41 17 -140 31 -219 120 -713 457 -1264 989
-1617 514 -340 1179 -461 1851 -339 308 57 625 175 895 335 556 329 944 836
1100 1440 104 398 103 911 -2 1322 -43 172 -126 354 -229 508 -162 241 -304
382 -810 805 -348 291 -456 384 -462 400 -9 20 21 207 47 298 70 245 242 496
473 690 189 158 369 273 807 517 440 245 588 338 755 478 198 165 320 348 366
547 21 89 26 326 8 358 -9 16 -13 13 -30 -25z"/>
<path d="M1012 9674 c-8 -4 18 -17 58 -30 312 -105 578 -361 837 -802 41 -70
168 -314 282 -542 220 -440 267 -527 369 -683 166 -254 353 -434 547 -523 145
-67 209 -79 415 -79 159 1 198 4 279 24 l93 23 -97 39 c-268 105 -508 298
-756 609 -111 138 -249 343 -469 695 -106 171 -229 364 -273 430 -335 502
-608 735 -962 821 -63 15 -300 28 -323 18z"/>
<path d="M11986 9459 c-21 -27 -68 -74 -105 -103 -178 -144 -385 -218 -716
-257 -149 -18 -599 -17 -920 1 -371 21 -904 19 -1063 -3 -459 -66 -739 -236
-890 -542 -44 -88 -96 -241 -88 -261 9 -24 111 -84 175 -104 162 -51 255 -9
501 224 209 198 292 259 413 304 93 35 173 44 310 33 296 -25 742 -34 1019
-22 565 24 909 86 1155 206 139 68 218 137 265 233 29 58 33 76 33 147 0 74
-27 196 -44 195 -3 -1 -23 -23 -45 -51z"/>
<path d="M6030 8554 c-19 -2 -78 -9 -130 -14 -109 -12 -309 -52 -395 -79 l-60
-19 55 -1 c115 -2 299 -29 452 -67 399 -99 687 -312 823 -608 156 -340 110
-780 -123 -1186 -248 -430 -643 -724 -1071 -795 -146 -25 -357 -16 -495 20
-111 29 -230 76 -326 129 l-65 36 35 -31 c198 -177 538 -374 770 -447 182 -57
248 -67 450 -66 165 1 195 4 281 26 53 14 131 40 174 57 504 202 897 767 1002
1442 24 156 23 436 -1 574 -102 566 -434 915 -962 1010 -87 15 -344 27 -414
19z"/>
<path d="M5464 7962 c-59 -21 -130 -65 -192 -119 l-44 -38 89 0 c84 0 92 -2
183 -47 159 -78 310 -209 365 -319 52 -101 84 -331 66 -463 -37 -264 -179
-401 -551 -531 -274 -95 -336 -118 -368 -134 l-34 -17 104 -32 c151 -46 239
-63 368 -69 371 -18 620 169 705 528 23 96 31 319 16 432 -49 366 -229 692
-436 789 -87 40 -192 48 -271 20z"/>
<path d="M5165 7745 c-36 -46 -28 -55 9 -9 15 20 26 38 23 40 -3 3 -17 -11
-32 -31z"/>
<path d="M9665 7379 c-151 -22 -335 -88 -480 -172 -104 -59 -215 -138 -215
-151 1 -33 30 -195 40 -221 31 -80 75 -90 185 -39 363 168 725 184 1112 50
236 -83 401 -169 818 -431 380 -238 529 -321 692 -386 261 -103 493 -116 710
-37 77 28 189 88 243 131 l25 20 -75 -6 c-88 -7 -292 8 -394 29 -346 72 -628
219 -1236 649 -382 270 -552 373 -754 459 -229 98 -466 135 -671 105z"/>
<path d="M113 6813 c-108 -105 -127 -138 -97 -160 22 -16 64 -16 239 2 261 27
446 16 542 -33 22 -11 52 -39 68 -62 40 -58 223 -230 346 -326 244 -191 512
-356 824 -509 425 -209 754 -309 1060 -322 303 -13 504 84 600 289 18 40 37
88 40 107 l7 34 -38 -7 c-275 -46 -572 -28 -876 53 -255 68 -485 168 -1072
466 -232 117 -483 241 -558 274 -311 138 -586 225 -828 265 -52 9 -109 18
-126 21 -29 5 -40 -3 -131 -92z"/>
<path d="M9295 5671 c-95 -25 -136 -41 -235 -92 l-85 -43 85 -7 c152 -11 274
-60 416 -168 209 -157 383 -387 734 -971 101 -168 215 -354 252 -414 350 -557
660 -840 998 -911 86 -18 284 -18 355 0 42 11 45 13 20 14 -51 3 -218 65 -300
112 -146 83 -309 235 -446 414 -137 180 -254 379 -476 810 -359 696 -454 849
-647 1040 -108 108 -182 159 -292 202 -93 35 -273 42 -379 14z"/>
<path d="M4210 4755 c0 -3 -7 -41 -16 -83 -30 -149 -118 -284 -243 -376 -113
-84 -305 -157 -522 -201 -253 -50 -502 -69 -1159 -85 -616 -16 -877 -42 -1082
-106 -229 -72 -349 -190 -365 -358 -3 -35 -3 -84 1 -110 l7 -46 40 50 c108
137 306 236 564 284 213 39 718 46 1220 16 266 -16 786 -14 950 4 457 49 751
184 921 423 48 66 118 208 129 261 6 27 4 32 -12 32 -42 0 -127 56 -208 135
-46 46 -99 95 -118 109 -34 26 -107 61 -107 51z"/>
<path d="M8207 4581 c17 -73 66 -216 175 -506 268 -714 395 -1159 457 -1606
61 -431 58 -897 -7 -1285 l-18 -103 96 -65 c52 -35 150 -105 218 -155 67 -50
122 -88 122 -86 0 3 -20 31 -44 62 -95 126 -183 319 -222 488 -26 111 -24 486
4 905 37 535 43 666 43 955 1 491 -44 773 -162 1010 -130 263 -314 385 -616
408 -52 4 -53 4 -46 -22z"/>
<path d="M5435 3980 c4 -6 1 -69 -5 -140 -43 -515 -305 -871 -911 -1238 -63
-39 -250 -143 -414 -232 -504 -272 -667 -376 -832 -533 -151 -145 -238 -280
-285 -444 -19 -66 -23 -102 -23 -233 0 -85 4 -168 8 -184 8 -27 11 -24 52 68
113 252 314 481 596 678 171 119 277 177 769 424 643 322 825 437 1045 659
251 253 386 526 439 886 23 155 24 149 -29 149 -101 0 -230 41 -336 106 -74
46 -84 51 -74 34z"/>
<path d="M6985 3795 c16 -48 35 -219 35 -315 -1 -210 -41 -424 -135 -705 -110
-331 -254 -639 -607 -1301 -276 -516 -363 -713 -375 -844 -5 -48 0 -69 36
-160 48 -122 163 -345 179 -345 6 0 14 -4 19 -9 5 -5 2 -6 -6 -1 -9 5 -12 3
-9 -6 3 -8 10 -14 16 -14 5 0 14 -4 19 -9 5 -5 3 -6 -4 -2 -23 13 -14 -13 16
-46 l28 -32 7 61 c9 80 47 235 87 353 51 154 133 328 396 851 137 272 272 549
300 616 270 637 318 1112 157 1581 -20 59 -56 146 -80 194 -46 92 -91 166 -79
133z m-900 -3585 c9 -16 13 -30 11 -30 -3 0 -12 14 -21 30 -9 17 -13 30 -11
30 3 0 12 -13 21 -30z m122 -42 c-3 -7 -5 -2 -5 12 0 14 2 19 5 13 2 -7 2 -19
0 -25z m-10 -60 c-3 -7 -5 -2 -5 12 0 14 2 19 5 13 2 -7 2 -19 0 -25z m-9 -63
c-2 -12 -6 -11 -16 6 -8 11 -9 18 -3 14 6 -3 12 2 12 12 1 17 2 17 6 1 2 -10
3 -25 1 -33z"/>
</g>
</svg>
